<?xml version="1.0" encoding="UTF-8"?>
<svg id="Calque_1" data-name="Calque 1" xmlns="http://www.w3.org/2000/svg" version="1.1" viewBox="0 0 709 168.8">
  <defs>
    <style>
      .cls-1 {
        fill: #000;
        stroke-width: 0px;
      }
    </style>
  </defs>
  <g>
    <path class="cls-1" d="M2.2,61.3h19.8c.1,1.3.2,2.5.4,3.7,1.2,11,7,16.6,18.1,17.3,2.3,0,4.7,0,7-.4,9.3-1.8,14.5-8.4,14.8-18.8,0-5.1,0-10.3,0-15.4v-28.3H29.1V2.7h53.4v57.1c0,5.9-.8,11.6-3.1,17-4.1,9.7-11.2,16.2-21,19.6-11.3,3.9-22.8,3.8-34-.6-12.2-4.8-19-14.1-21.3-26.8-.4-2.5-.6-4.9-.9-7.7Z"/>
    <path class="cls-1" d="M202.4,97.1h-73.9V2.7h72.9v16.2h-52.6v22h47.8v16.1h-47.7v23.5h53.7c-.2,5.6-.2,11-.2,16.6Z"/>
    <path class="cls-1" d="M285.3,77c1.9-5,3.6-9.4,5.4-13.8,1.7-4.3,3.4-8.6,5-13,.4-1,.3-2.3,0-3.3-5.5-13.5-11.1-27-16.6-40.5-.5-1.1-.6-2.3-.9-3.7.8,0,1.2,0,1.7,0h17.5c1.2,0,1.7.4,2.1,1.5,2.3,6,4.6,11.9,7.1,18.3.4-.9.6-1.4.8-2,2.1-5.5,4.2-11,6.4-16.4.2-.6,1-1.3,1.6-1.3,6.1,0,12.3,0,18.4,0,.2,0,.3,0,.9.2-.2,1.2-.3,2.4-.7,3.5-5.5,13.4-11,26.8-16.6,40.1-.5,1.2-.5,2.3,0,3.5,3.3,8.3,6.5,16.6,9.7,24.9.2.6.5,1.1.8,2,.3-.7.6-1.2.8-1.7,9.1-23.5,18.3-47,27.4-70.5.6-1.5,1.2-2.1,2.9-2,5.9,0,11.9,0,18.3,0-.2,1.3-.2,2.5-.7,3.6-12.3,29.9-24.7,59.8-37.1,89.7-.4,1-.9,1.4-2,1.4-6.4,0-12.9,0-19.3,0-1.2,0-1.7-.4-2.2-1.5-2.8-6.9-5.6-13.7-8.5-20.6-.3-.6-.5-1.2-1-2.2-.4.9-.7,1.5-1,2.1-2.8,6.9-5.7,13.7-8.5,20.6-.5,1.1-1,1.6-2.3,1.6-6.4,0-12.7,0-19.1,0-1.2,0-1.7-.3-2.2-1.4-12.3-29.8-24.6-59.7-36.9-89.5-.4-1-.5-2.2-.8-3.7h19c1.2,0,1.8.3,2.3,1.5,9.1,23.5,18.3,47,27.4,70.5.1.5.4,1.1.9,2.2Z"/>
    <path class="cls-1" d="M413.6,2.6h72.8v16.2h-52.7v22.1h47.8v16.1h-47.8v23.5h53.7v16.5h-73.9c0-31.4,0-62.8,0-94.4Z"/>
    <path class="cls-1" d="M550.5,80.2h47.4v16.9h-67.7V2.7h20.3v77.5Z"/>
    <path class="cls-1" d="M667.9,97.1h-20.2v-36.5c0-1.1-.4-2.3-1-3.2-11.8-17-23.6-33.9-35.4-50.9-.7-1-1-2.3-1.6-3.9h20.7c1.3,0,2,.4,2.7,1.5,7.8,12.2,15.7,24.3,23.6,36.5.4.6.8,1.1,1.3,1.9.5-.7.9-1.3,1.3-1.9,7.8-12.1,15.7-24.2,23.5-36.3.8-1.3,1.7-1.7,3.1-1.7,6.4,0,12.9,0,19.9,0-.5,1.4-.7,2.7-1.3,3.7-11.8,17-23.6,33.9-35.3,50.9-.7,1-1.1,2.4-1.1,3.6,0,11.4,0,22.8,0,34.2-.2.6-.2,1.2-.2,2.1Z"/>
  </g>
  <g>
    <path class="cls-1" d="M172.2,159.9c-.6.9-1.3,1.7-2.1,2.5-.9.8-1.8,1.4-2.9,2-1.1.6-2.3,1-3.5,1.3-1.3.3-2.6.5-4,.5-2.5,0-4.9-.4-7.1-1.3-2.2-.9-4-2.1-5.6-3.7-1.6-1.6-2.8-3.5-3.7-5.7-.9-2.2-1.3-4.6-1.3-7.2s.4-5,1.3-7.2c.9-2.2,2.1-4.1,3.7-5.7,1.6-1.6,3.5-2.8,5.6-3.7s4.5-1.3,7.1-1.3,4.2.4,6.4,1.3c2.1.8,3.9,2.2,5.4,4.1l-3,2.3c-.4-.5-.8-1.1-1.4-1.6-.6-.5-1.3-1-2.1-1.4-.8-.4-1.6-.8-2.5-1-.9-.3-1.8-.4-2.7-.4-2.2,0-4.1.4-5.9,1.2-1.7.8-3.2,1.9-4.4,3.2-1.2,1.3-2.1,2.9-2.8,4.7-.6,1.8-1,3.7-1,5.6s.3,3.8,1,5.6c.6,1.8,1.6,3.3,2.8,4.7,1.2,1.3,2.7,2.4,4.4,3.2,1.7.8,3.7,1.2,5.9,1.2s1.8,0,2.7-.2c.9-.2,1.7-.4,2.6-.8.8-.4,1.7-.9,2.4-1.6.8-.7,1.5-1.5,2.1-2.5l2.8,2Z"/>
    <path class="cls-1" d="M216,148.3c0,2.6-.4,5-1.3,7.2-.9,2.2-2.1,4.1-3.7,5.7-1.6,1.6-3.5,2.8-5.6,3.7-2.2.9-4.5,1.3-7.1,1.3s-4.9-.4-7.1-1.3c-2.2-.9-4-2.1-5.6-3.7-1.6-1.6-2.8-3.5-3.7-5.7-.9-2.2-1.3-4.6-1.3-7.2s.4-5,1.3-7.2c.9-2.2,2.1-4.1,3.7-5.7,1.6-1.6,3.5-2.8,5.6-3.7s4.5-1.3,7.1-1.3,4.9.4,7.1,1.3,4,2.1,5.6,3.7c1.6,1.6,2.8,3.5,3.7,5.7.9,2.2,1.3,4.6,1.3,7.2ZM212.3,148.3c0-2-.3-3.8-1-5.6-.6-1.8-1.6-3.3-2.8-4.7-1.2-1.3-2.7-2.4-4.4-3.2-1.7-.8-3.7-1.2-5.9-1.2s-4.1.4-5.9,1.2c-1.7.8-3.2,1.9-4.4,3.2-1.2,1.3-2.1,2.9-2.8,4.7-.6,1.8-1,3.7-1,5.6s.3,3.8,1,5.6c.6,1.8,1.6,3.3,2.8,4.7,1.2,1.3,2.7,2.4,4.4,3.2,1.7.8,3.7,1.2,5.9,1.2s4.1-.4,5.9-1.2c1.7-.8,3.2-1.9,4.4-3.2,1.2-1.3,2.1-2.9,2.8-4.7.6-1.8,1-3.6,1-5.6Z"/>
    <path class="cls-1" d="M252.4,160.1h0v-28.9h3.5v34.1h-4.3l-20.3-29.2h0v29.2h-3.5v-34.1h4.3l20.3,28.9Z"/>
    <path class="cls-1" d="M273.5,165.3h-3.5v-34.1h20.6v3.2h-17.1v11.6h15.9v3.2h-15.9v16.1Z"/>
    <path class="cls-1" d="M305.1,165.3h-3.5v-34.1h3.5v34.1Z"/>
    <path class="cls-1" d="M344.3,137.5c-1.2-1.2-2.5-2.2-4.1-2.9-1.6-.7-3.5-1.1-5.6-1.1s-4.1.4-5.9,1.2c-1.7.8-3.2,1.9-4.4,3.2-1.2,1.3-2.1,2.9-2.8,4.7-.6,1.8-1,3.7-1,5.6s.3,3.8,1,5.6c.6,1.8,1.6,3.3,2.8,4.7,1.2,1.3,2.7,2.4,4.4,3.2,1.7.8,3.7,1.2,5.9,1.2s3.5-.2,5.1-.6c1.6-.4,3.1-1,4.4-1.8v-11.4h-8.1v-3.2h11.6v16.7c-1.9,1.1-4,2-6.3,2.6-2.3.6-4.5.9-6.6.9s-4.9-.4-7.1-1.3c-2.2-.9-4-2.1-5.6-3.7-1.6-1.6-2.8-3.5-3.7-5.7-.9-2.2-1.3-4.6-1.3-7.2s.4-5,1.3-7.2c.9-2.2,2.1-4.1,3.7-5.7,1.6-1.6,3.5-2.8,5.6-3.7s4.5-1.3,7.1-1.3,5.1.4,7.1,1.1,3.7,1.9,5.3,3.4l-2.6,2.6Z"/>
    <path class="cls-1" d="M385.8,152.6c0,1.4-.2,2.9-.5,4.5-.3,1.6-1,3.1-1.9,4.4s-2.2,2.5-3.8,3.3c-1.6.9-3.7,1.3-6.2,1.3s-4.7-.4-6.3-1.3c-1.6-.9-2.9-2-3.8-3.3s-1.6-2.8-1.9-4.4c-.3-1.6-.5-3.1-.5-4.5v-21.4h3.5v21c0,1.6.2,3,.5,4.2.3,1.2.7,2.2,1.3,3s1.1,1.4,1.8,1.9c.7.5,1.3.8,2,1.1.7.3,1.3.4,1.9.5s1.1.1,1.6.1.9,0,1.6-.1c.6,0,1.3-.2,1.9-.5.7-.3,1.3-.6,2-1.1.7-.5,1.3-1.1,1.8-1.9.5-.8,1-1.8,1.3-3,.3-1.2.5-2.6.5-4.2v-21h3.5v21.4Z"/>
    <path class="cls-1" d="M402.7,165.3h-3.5v-34.1h10.5c3.5,0,6.2.8,8.2,2.3,2,1.5,3,3.8,3,6.8s-.7,4.4-2.2,6-3.7,2.6-6.5,2.8l9.8,16.2h-4.2l-9.3-15.8h-5.8v15.8ZM402.7,146.3h6.2c1.5,0,2.8-.2,3.9-.5,1.1-.3,1.9-.7,2.6-1.3.6-.5,1.1-1.2,1.4-1.9.3-.7.4-1.5.4-2.3s-.1-1.6-.4-2.3-.8-1.4-1.4-1.9c-.6-.5-1.5-1-2.6-1.3-1.1-.3-2.4-.5-3.9-.5h-6.2v11.9Z"/>
    <path class="cls-1" d="M432,165.3h-4l14.8-34.1h3.4l14.8,34.1h-4l-3.8-9h-17.4l-3.8,9ZM437.1,153.2h14.8l-7.4-17.9-7.4,17.9Z"/>
    <path class="cls-1" d="M478.1,165.3h-3.5v-30.9h-11.4v-3.2h26.3v3.2h-11.4v30.9Z"/>
    <path class="cls-1" d="M532.8,148.3c0,2.6-.5,5-1.3,7.2-.9,2.2-2.1,4.1-3.7,5.7s-3.5,2.8-5.6,3.7c-2.2.9-4.5,1.3-7.1,1.3s-4.9-.4-7.1-1.3c-2.2-.9-4-2.1-5.6-3.7-1.6-1.6-2.8-3.5-3.7-5.7-.9-2.2-1.3-4.6-1.3-7.2s.4-5,1.3-7.2c.9-2.2,2.1-4.1,3.7-5.7,1.6-1.6,3.5-2.8,5.6-3.7,2.2-.9,4.5-1.3,7.1-1.3s4.9.4,7.1,1.3,4,2.1,5.6,3.7,2.8,3.5,3.7,5.7c.9,2.2,1.3,4.6,1.3,7.2ZM529,148.3c0-2-.3-3.8-1-5.6-.6-1.8-1.6-3.3-2.8-4.7-1.2-1.3-2.7-2.4-4.4-3.2-1.7-.8-3.7-1.2-5.9-1.2s-4.1.4-5.9,1.2c-1.7.8-3.2,1.9-4.4,3.2s-2.1,2.9-2.8,4.7c-.6,1.8-1,3.7-1,5.6s.3,3.8,1,5.6c.6,1.8,1.6,3.3,2.8,4.7s2.7,2.4,4.4,3.2c1.7.8,3.7,1.2,5.9,1.2s4.1-.4,5.9-1.2c1.7-.8,3.2-1.9,4.4-3.2,1.2-1.3,2.1-2.9,2.8-4.7s1-3.6,1-5.6Z"/>
    <path class="cls-1" d="M548,165.3h-3.5v-34.1h10.5c3.5,0,6.2.8,8.2,2.3,2,1.5,3,3.8,3,6.8s-.7,4.4-2.2,6-3.7,2.6-6.5,2.8l9.8,16.2h-4.2l-9.3-15.8h-5.8v15.8ZM548,146.3h6.2c1.5,0,2.8-.2,3.9-.5,1.1-.3,1.9-.7,2.6-1.3s1.1-1.2,1.4-1.9c.3-.7.4-1.5.4-2.3s-.1-1.6-.4-2.3c-.3-.7-.8-1.4-1.4-1.9-.6-.5-1.5-1-2.6-1.3-1.1-.3-2.4-.5-3.9-.5h-6.2v11.9Z"/>
  </g>
</svg>