<?xml version="1.0" encoding="UTF-8"?>
<svg id="Calque_1" data-name="Calque 1" xmlns="http://www.w3.org/2000/svg" version="1.1" viewBox="0 0 528.4 363.4">
  <defs>
    <style>
      .cls-1 {
        fill: #fff;
        stroke-width: 0px;
      }
    </style>
  </defs>
  <path class="cls-1" d="M157.1,43.2c-1.1,0,38.8,0,38.8,0-16.6,18.4-32.6,35.8-48.9,53.6,39.4,49.2,78.8,98.1,118.8,147.5,38.5-49.8,76.7-99.2,115.5-149-7.1-6.8-14.2-13.3-21-19.6-13.9-12.7-27.8-25.8-41.5-38.5-3.9-3.6-6.3-5.3-6.3-5.3H99.5s-2.6,2.1-6.7,6.8c-16,17.8-32.6,35.3-48.9,53-1.5,1.5-3,3.3-4.4,5.3,57.8,71.7,115.5,143.4,173.6,215.4,8.9-11.3,17.5-22.2,26.7-33.8,5.9,7.4,11.3,13.9,16.6,21,.6.6.6,2.7.3,3.3-14.2,18.4-28.4,36.7-43,55.7C142.9,270.7,72.4,183.3,1.9,95.6c8.3-9.2,16.3-18.1,24.6-27,18.4-20.1,55.7-60.1,55.7-60.1l5.6-5,237,.3s1.9,1.8,4.9,4.1c28.7,26.1,89.6,84.1,89.6,84.1l-3.1,6c-42.4,54.2-89.1,113.7-131.5,167.6,0,0,.9,2.7,5,7.4,10.1,12.7,20.4,25.8,31.4,39.4h0c56.3-72.6,112-144.6,168-217.2-8.9-8.6-17.8-16.9-26.4-24.9-11.8-11.3-24-22.2-35.8-33.5-3.9-3.6-6.3-5.3-6.3-5.3,0,0-31.3.3-43.4,0-2.1,0-4.7-.3-6.2-1.5-9.8-8.3-19.3-16.6-30.5-26.4,3.6-.3,5.6-.3,7.4-.3h82.4l8.6,6.5c24.3,22.8,48.9,45.6,73.2,68.4,3.3,3.3,15.4,14.2,15.4,14.2l-4.1,6c-20.7,26.4-41.8,53-62.5,79.7-45,58.1-89.8,115.8-134.5,173.9-1.8,2.1-3.3,4.1-5.3,6.8-70.8-88-141.3-175.4-211.8-263.1"/>
</svg>